<svg width="24" height="24" fill="none" xmlns="http://www.w3.org/2000/svg"><path fill-rule="evenodd" clip-rule="evenodd" d="M10.65 2.501a2.75 2.75 0 0 1 3.701.97l.002.004 8.47 14.14.007.01a2.75 2.75 0 0 1-2.352 4.125H3.522a2.75 2.75 0 0 1-2.351-4.125l.006-.01 8.47-14.14.643.385-.641-.389a2.75 2.75 0 0 1 1.002-.97Zm.282 1.747v.001L2.466 18.38a1.25 1.25 0 0 0 1.068 1.871h16.93a1.25 1.25 0 0 0 1.068-1.87L13.07 4.25l-.001-.002a1.25 1.25 0 0 0-2.136 0ZM12 8a1 1 0 0 1 1 1v4a1 1 0 1 1-2 0V9a1 1 0 0 1 1-1Zm0 8a1 1 0 1 0 0 2h.01a1 1 0 1 0 0-2H12Z" fill="#EFBE0E"/></svg>