<svg width="16" height="16" fill="none" xmlns="http://www.w3.org/2000/svg"><path fill-rule="evenodd" clip-rule="evenodd" d="M1.576 8.562c-.15-.231-.263-.424-.34-.562a12.618 12.618 0 0 1 1.713-2.325C4.155 4.388 5.865 3.168 8 3.168c2.134 0 3.844 1.22 5.052 2.509A12.61 12.61 0 0 1 14.765 8a12.608 12.608 0 0 1-1.713 2.325c-1.208 1.289-2.918 2.509-5.052 2.509-2.134 0-3.844-1.22-5.052-2.509-.6-.64-1.06-1.28-1.372-1.763Zm14.204-.786L15.333 8l.447.224v.002l-.003.004-.007.014a12.155 12.155 0 0 1-.506.86c-.335.519-.832 1.211-1.482 1.905-1.293 1.378-3.249 2.825-5.782 2.825s-4.49-1.447-5.781-2.825A13.62 13.62 0 0 1 .355 8.475a8.065 8.065 0 0 1-.125-.23L.223 8.23.22 8.226.22 8.225.667 8C.219 7.777.22 7.777.22 7.776v-.001l.003-.005.007-.014a4.775 4.775 0 0 1 .125-.23 13.616 13.616 0 0 1 1.864-2.534C3.51 3.614 5.467 2.167 8 2.167c2.533 0 4.49 1.447 5.781 2.825a13.621 13.621 0 0 1 1.864 2.534 7.984 7.984 0 0 1 .125.23l.007.014.003.005v.001ZM.667 8l-.448.224a.5.5 0 0 1 0-.447L.667 8Zm14.666 0 .448-.223a.5.5 0 0 1 0 .447L15.333 8ZM6.5 8a1.5 1.5 0 1 1 3 0 1.5 1.5 0 0 1-3 0ZM8 5.5a2.5 2.5 0 1 0 0 5 2.5 2.5 0 0 0 0-5Z" fill="#2D2A26"/></svg>