<svg width="16" height="16" fill="none" xmlns="http://www.w3.org/2000/svg"><path fill-rule="evenodd" clip-rule="evenodd" d="M1.02.313a.5.5 0 1 0-.707.708l2.978 2.978A12.8 12.8 0 0 0 .226 7.764a.5.5 0 0 0-.007.46L.667 8a58.19 58.19 0 0 0-.447.224v.002l.003.004.007.014a4.76 4.76 0 0 0 .125.23 13.62 13.62 0 0 0 1.864 2.534C3.51 12.389 5.467 13.835 8 13.835h.008a7.214 7.214 0 0 0 3.898-1.22l3.074 3.073a.5.5 0 1 0 .707-.707l-3.373-3.373-2.545-2.545-.004-.003-2.823-2.824-.004-.004-2.544-2.544L1.02.313ZM11.183 11.89l-1.795-1.795a2.504 2.504 0 0 1-2.374.273 2.5 2.5 0 0 1-1.109-3.756L4.002 4.71a11.8 11.8 0 0 0-2.766 3.293 12.616 12.616 0 0 0 1.712 2.323c1.207 1.288 2.916 2.507 5.048 2.509a6.214 6.214 0 0 0 3.187-.944ZM6.63 7.338a1.495 1.495 0 0 0-.07 1.274 1.5 1.5 0 0 0 2.103.758L6.63 7.338Zm7.223 2.041L7.656 3.177c.114-.007.228-.01.343-.01H8c2.134 0 3.844 1.22 5.052 2.509a12.61 12.61 0 0 1 1.712 2.323c-.271.48-.576.942-.911 1.38Zm1.928-1.602L15.333 8c.448-.223.447-.223.447-.224v-.001l-.003-.005-.007-.014a12.155 12.155 0 0 0-.506-.86 13.621 13.621 0 0 0-1.482-1.904C12.489 3.614 10.532 2.167 8 2.167H8v.5l.001-.5a6.58 6.58 0 0 0-1.515.173.5.5 0 0 0-.24.84l7.294 7.3a.5.5 0 0 0 .736-.031 12.834 12.834 0 0 0 1.498-2.213.5.5 0 0 0 .007-.46Z" fill="#2D2A26"/></svg>