<svg width="34" height="34" fill="none" xmlns="http://www.w3.org/2000/svg"><path fill-rule="evenodd" clip-rule="evenodd" d="M9.2 8.422c-2.406.492-4.21 2.703-4.21 5.206 0 3.671 2.703 7.174 5.673 9.875a36.91 36.91 0 0 0 5.327 4 36.91 36.91 0 0 0 5.327-4c2.97-2.7 5.673-6.204 5.673-9.875 0-2.491-1.804-4.715-4.21-5.206-1.082-.214-2.345-.04-3.457.48-1.112.52-1.99 1.348-2.408 2.36a1 1 0 0 1-1.85 0c-.417-1.012-1.295-1.84-2.407-2.36-1.112-.52-2.375-.694-3.458-.48Zm6.79 20.246-.493.87-.003-.002-.008-.004-.03-.017a24.572 24.572 0 0 1-.505-.302 38.905 38.905 0 0 1-5.633-4.23c-3.03-2.755-6.328-6.772-6.328-11.355 0-3.442 2.462-6.484 5.814-7.166l.005-.001c1.544-.306 3.24-.052 4.697.63.937.438 1.808 1.07 2.484 1.884.676-.813 1.548-1.446 2.484-1.884 1.457-.682 3.153-.936 4.697-.63h.006c3.352.684 5.813 3.74 5.813 7.167 0 4.583-3.297 8.6-6.327 11.355a38.897 38.897 0 0 1-6.139 4.532l-.03.017-.008.004-.002.002c-.001 0-.002 0-.494-.87Zm0 0 .493.87a1 1 0 0 1-.985 0l.492-.87Z" fill="#515051"/><rect x="18" width="16" height="16" rx="8" fill="#2D2A26"/><path d="M23.52 10.56c0-.14.06-.26.18-.36a51.245 51.245 0 0 0 2.04-1.67c1.02-.893 1.53-1.673 1.53-2.34 0-.387-.133-.687-.4-.9-.26-.213-.59-.32-.99-.32-.627 0-1.157.207-1.59.62a.477.477 0 0 1-.25.09.367.367 0 0 1-.27-.11.387.387 0 0 1-.1-.27c0-.12.043-.213.13-.28.546-.527 1.24-.79 2.08-.79.613 0 1.14.177 1.58.53.44.347.66.823.66 1.43 0 .44-.134.873-.4 1.3-.253.407-.6.82-1.04 1.24-.44.42-1.04.93-1.8 1.53h2.94c.1 0 .186.037.26.11.073.073.11.16.11.26s-.037.187-.11.26a.356.356 0 0 1-.26.11h-3.86a.446.446 0 0 1-.44-.44Z" fill="#fff"/></svg>