<svg width="24" height="24" fill="none" xmlns="http://www.w3.org/2000/svg"><path fill-rule="evenodd" clip-rule="evenodd" d="M6.957 5.062C5.27 5.407 4 6.962 4 8.722c0 2.639 1.953 5.202 4.173 7.221A27.418 27.418 0 0 0 12 18.834a27.422 27.422 0 0 0 3.827-2.89C18.047 13.923 20 11.36 20 8.721c0-1.751-1.271-3.315-2.957-3.66-.754-.148-1.647-.029-2.438.342-.79.37-1.396.95-1.68 1.639a1 1 0 0 1-1.85 0c-.284-.69-.89-1.27-1.68-1.64-.791-.37-1.684-.49-2.438-.34ZM12 20.002l-.493.87-.003-.002-.006-.004-.023-.013-.083-.048a27.698 27.698 0 0 1-1.36-.868 29.426 29.426 0 0 1-3.205-2.514C4.547 15.35 2 12.273 2 8.722c0-2.7 1.929-5.084 4.56-5.62l.006-.001c1.215-.24 2.541-.04 3.677.491A5.728 5.728 0 0 1 12 4.854a5.73 5.73 0 0 1 1.757-1.262c1.136-.531 2.462-.732 3.677-.491h.006c2.633.537 4.56 2.933 4.56 5.62 0 3.552-2.547 6.629-4.827 8.702a29.422 29.422 0 0 1-4.565 3.382l-.083.048-.023.013-.006.004-.002.002h-.001l-.493-.87Zm0 0 .492.87a1 1 0 0 1-.984 0l.492-.87Z" fill="#515051"/></svg>