<svg width="24" height="24" fill="none" xmlns="http://www.w3.org/2000/svg"><path fill-rule="evenodd" clip-rule="evenodd" d="m16.204 1.919 4.673 3.922a2.04 2.04 0 0 1 .252 2.874L10.779 21.05a2.04 2.04 0 0 1-2.874.252L3.23 17.379a2.04 2.04 0 0 1-.252-2.875L13.33 2.17a2.04 2.04 0 0 1 2.875-.251Zm-.643.766a1.04 1.04 0 0 0-1.466.128L3.745 15.147a1.04 1.04 0 0 0 .129 1.466l4.673 3.922a1.04 1.04 0 0 0 1.466-.129l1.347-1.605h-.001L7.18 15.293a.5.5 0 1 1 .643-.766L12 18.034l.002.001 1.695-2.02-2.785-2.337a.5.5 0 0 1 .643-.766l2.785 2.337 1.693-2.018-.002-.002-4.178-3.506a.5.5 0 0 1 .643-.766l4.178 3.506.002.002 1.696-2.021-2.437-2.045a.5.5 0 1 1 .643-.766l2.436 2.045 1.348-1.606a1.04 1.04 0 0 0-.128-1.465L15.56 2.685Z" fill="#2D2A26"/></svg>