<svg width="24" height="24" fill="none" xmlns="http://www.w3.org/2000/svg"><path fill-rule="evenodd" clip-rule="evenodd" d="m14.982 2.586.708.707 5.019 5.02.707.707-.707.707-3.137 3.137-6.275 6.275-.667.667a4 4 0 0 1-2.805 1.172l-2.805.016a2 2 0 0 1-2.012-2.011l.016-2.805a4 4 0 0 1 1.172-2.805l.667-.668 6.275-6.275 3.137-3.137.707-.707ZM13.26 7.137l3.606 3.606 1.723-1.723-3.606-3.606-1.723 1.723Zm2.191 5.02-3.605-3.605-4.86 4.86 3.605 3.605 4.86-4.86Zm-6.275 6.274-3.604-3.604a2 2 0 0 0-.547 1.362l-.016 2.805 2.805-.016a2 2 0 0 0 1.362-.547Z" fill="#515051"/></svg>