<svg width="32" height="32" fill="none" xmlns="http://www.w3.org/2000/svg"><path fill-rule="evenodd" clip-rule="evenodd" d="M9.583 5.895a.41.41 0 0 0-.28-.058 5.49 5.49 0 0 0-4.803 5.45c0 4.377 1.708 8.555 4.813 11.647 3.09 3.076 7.273 4.494 11.674 4.494 1.375 0 2.696-.354 3.67-1.209 1.01-.887 1.61-1.94 1.78-3.26a.483.483 0 0 0-.058-.303.441.441 0 0 0-.218-.197l-.011-.005-5.853-2.506-.01-.005a.49.49 0 0 0-.232-.037h-.003a.434.434 0 0 0-.219.072l-.008.006-3.127 2.088a1.414 1.414 0 0 1-.725.261c-.241.02-.506-.02-.754-.143a11.063 11.063 0 0 1-5.104-5.073 1.39 1.39 0 0 1-.147-.76c.02-.256.1-.495.237-.71l.004-.006 2.077-3.17a.377.377 0 0 0 .067-.196v-.021l.002-.02a.49.49 0 0 0-.037-.232l-.004-.01-2.507-5.854a.5.5 0 0 0-.202-.23l-.011-.006-.011-.007Zm6.39 16.438h-.001l-.039-.498.042.498h-.002Zm-5.86-17.286a1.41 1.41 0 0 0-.935-.202h-.002A6.49 6.49 0 0 0 3.5 11.288c0 4.638 1.812 9.072 5.107 12.354 3.311 3.297 7.767 4.786 12.38 4.786 1.53 0 3.117-.393 4.33-1.458 1.176-1.032 1.909-2.3 2.112-3.885v-.002c.04-.316-.02-.639-.181-.923a1.44 1.44 0 0 0-.71-.627l-5.843-2.503a1.49 1.49 0 0 0-.722-.12c-.249.02-.494.097-.708.245l-3.13 2.09-.008.006-.008.006a.415.415 0 0 1-.224.08h-.003a.431.431 0 0 1-.228-.043l-.006-.003a10.063 10.063 0 0 1-4.65-4.623l-.004-.01-.005-.01a.395.395 0 0 1-.034-.215.528.528 0 0 1 .082-.247l2.078-3.17.004-.006c.13-.206.22-.45.224-.714.016-.23-.022-.48-.122-.703l-2.505-5.848a1.5 1.5 0 0 0-.613-.698Z" fill="#2D2A26"/></svg>