<svg width="64" height="64" fill="none" xmlns="http://www.w3.org/2000/svg"><g clip-path="url('#clip0_943_77177')" opacity=".4"><path fill-rule="evenodd" clip-rule="evenodd" d="M44 24c0 6.627-5.373 12-12 12s-12-5.373-12-12 5.373-12 12-12 12 5.373 12 12Zm-11.57-3.141c-1.167.485-3.5 1.49-6.998 3.014-.568.226-.866.447-.893.663-.046.366.412.51 1.034.705.085.027.173.054.263.084.613.199 1.437.432 1.865.441.389.008.823-.152 1.302-.48 3.268-2.207 4.955-3.322 5.061-3.346.075-.017.179-.039.249.024.07.062.063.18.056.212-.046.193-1.84 1.862-2.77 2.726-.29.269-.495.46-.537.504-.094.097-.19.19-.282.279-.57.548-.996.96.024 1.632.49.323.882.59 1.273.856.427.291.853.581 1.405.943.14.092.274.187.405.28.497.355.944.673 1.496.623.32-.03.652-.331.82-1.23.397-2.126 1.179-6.73 1.36-8.628a2.112 2.112 0 0 0-.02-.472.505.505 0 0 0-.172-.325c-.143-.117-.365-.142-.465-.14-.451.008-1.143.249-4.476 1.635Z" fill="#2D2A26"/></g><path d="M10.64 52.556v-6.672H8.506a.427.427 0 0 1-.312-.132.427.427 0 0 1-.132-.312c0-.12.044-.224.132-.312a.427.427 0 0 1 .312-.132h5.28c.12 0 .224.044.312.132a.427.427 0 0 1 .132.312c0 .12-.044.224-.132.312a.427.427 0 0 1-.312.132h-2.148v6.672a.474.474 0 0 1-.144.348.474.474 0 0 1-.348.144.515.515 0 0 1-.36-.144.474.474 0 0 1-.144-.348Zm5.965-5.496c.825 0 1.492.284 2.005.852.52.56.78 1.236.78 2.028 0 .304-.177.456-.529.456h-4.164c.033.56.24 1.036.625 1.428.368.384.855.576 1.463.576.576 0 1.096-.184 1.56-.552a.405.405 0 0 1 .204-.048.36.36 0 0 1 .265.108.321.321 0 0 1 .108.252c0 .12-.053.22-.157.3-.584.456-1.271.684-2.064.684-.864 0-1.572-.284-2.123-.852-.553-.568-.829-1.3-.829-2.196 0-.84.272-1.556.816-2.148a2.68 2.68 0 0 1 2.04-.888Zm-1.908 2.676h3.805a2.081 2.081 0 0 0-.528-1.344c-.329-.392-.788-.588-1.38-.588-.56 0-1.013.196-1.357.588a2.137 2.137 0 0 0-.54 1.344Zm6.15 2.868v-7.212c0-.12.044-.224.132-.312a.44.44 0 0 1 .324-.132c.12 0 .224.044.312.132a.427.427 0 0 1 .132.312v7.212c0 .12-.044.224-.132.312a.427.427 0 0 1-.312.132.44.44 0 0 1-.324-.132.427.427 0 0 1-.132-.312Zm5.216-5.544c.824 0 1.492.284 2.004.852.52.56.78 1.236.78 2.028 0 .304-.176.456-.528.456h-4.164c.032.56.24 1.036.624 1.428.368.384.856.576 1.464.576.576 0 1.096-.184 1.56-.552a.405.405 0 0 1 .204-.048.36.36 0 0 1 .264.108.321.321 0 0 1 .108.252c0 .12-.052.22-.156.3-.584.456-1.272.684-2.064.684-.864 0-1.572-.284-2.124-.852-.552-.568-.828-1.3-.828-2.196 0-.84.272-1.556.816-2.148a2.68 2.68 0 0 1 2.04-.888Zm-1.908 2.676h3.804a2.081 2.081 0 0 0-.528-1.344c-.328-.392-.788-.588-1.38-.588-.56 0-1.012.196-1.356.588a2.137 2.137 0 0 0-.54 1.344ZM35.392 47.6v5.232c0 .88-.26 1.52-.78 1.92-.52.4-1.18.6-1.98.6-.856 0-1.556-.22-2.1-.66a.376.376 0 0 1-.156-.312.38.38 0 0 1 .12-.276.38.38 0 0 1 .276-.12c.088 0 .164.028.228.084.416.36.96.54 1.632.54.56 0 1.008-.148 1.344-.444.344-.296.516-.728.516-1.296v-.816c-.224.312-.508.56-.852.744a2.282 2.282 0 0 1-1.092.276c-.768 0-1.392-.268-1.872-.804-.472-.544-.708-1.276-.708-2.196 0-.912.236-1.64.708-2.184.48-.552 1.104-.828 1.872-.828.792 0 1.44.344 1.944 1.032V47.6c0-.12.044-.224.132-.312a.44.44 0 0 1 .324-.132c.12 0 .224.044.312.132a.427.427 0 0 1 .132.312Zm-.9 3.732V48.8a1.927 1.927 0 0 0-.732-.672 2.04 2.04 0 0 0-.996-.264c-.568 0-1.02.204-1.356.612-.336.4-.504.932-.504 1.596 0 .656.168 1.188.504 1.596.336.408.788.612 1.356.612.336 0 .664-.088.984-.264.328-.184.576-.412.744-.684Zm5.595-3.792a.413.413 0 0 1-.132.3.615.615 0 0 1-.36.144c-.264.008-.552.108-.864.3-.288.176-.5.38-.636.612v3.708c0 .12-.044.224-.132.312a.427.427 0 0 1-.312.132.44.44 0 0 1-.324-.132.427.427 0 0 1-.132-.312V47.6c0-.12.044-.224.132-.312a.427.427 0 0 1 .312-.132.44.44 0 0 1 .324.132.427.427 0 0 1 .132.312v.54c.392-.536.824-.86 1.296-.972.144-.04.24-.06.288-.06.12 0 .216.044.288.132.08.08.12.18.12.3Zm5.593 1.476v3.588c0 .12-.044.224-.132.312a.44.44 0 0 1-.324.132.427.427 0 0 1-.312-.132.427.427 0 0 1-.132-.312v-.264c-.448.536-1.088.804-1.92.804-.544 0-1.02-.172-1.428-.516-.4-.352-.6-.82-.6-1.404s.2-1.048.6-1.392a2.148 2.148 0 0 1 1.428-.516c.824 0 1.464.264 1.92.792v-1.044c0-.376-.136-.672-.408-.888-.264-.224-.616-.336-1.056-.336-.576 0-1.08.192-1.512.576a.463.463 0 0 1-.24.072.36.36 0 0 1-.264-.108.36.36 0 0 1-.108-.264c0-.128.052-.228.156-.3.576-.504 1.272-.756 2.088-.756.688 0 1.232.164 1.632.492.408.328.612.816.612 1.464Zm-.9 2.76v-1.092c-.344-.48-.876-.72-1.596-.72-.416 0-.76.12-1.032.36-.264.232-.396.536-.396.912 0 .368.132.672.396.912.272.232.616.348 1.032.348.72 0 1.252-.24 1.596-.72Zm10.6-2.964v3.792a.41.41 0 0 1-.144.312.427.427 0 0 1-.312.132.427.427 0 0 1-.312-.132.427.427 0 0 1-.132-.312v-3.54c0-.8-.356-1.2-1.068-1.2-.28 0-.564.088-.852.264a2.066 2.066 0 0 0-.684.624v3.852c0 .12-.044.224-.132.312a.427.427 0 0 1-.312.132.467.467 0 0 1-.324-.132.427.427 0 0 1-.132-.312v-3.54c0-.8-.356-1.2-1.068-1.2-.272 0-.552.088-.84.264-.28.168-.508.38-.684.636v3.84c0 .12-.044.224-.132.312a.427.427 0 0 1-.312.132.44.44 0 0 1-.324-.132.427.427 0 0 1-.132-.312V47.6c0-.12.044-.224.132-.312a.427.427 0 0 1 .312-.132.44.44 0 0 1 .324.132.427.427 0 0 1 .132.312v.444c.128-.216.376-.436.744-.66.36-.216.736-.324 1.128-.324.416 0 .756.1 1.02.3.264.192.444.452.54.78.184-.288.452-.54.804-.756.36-.216.74-.324 1.14-.324 1.08 0 1.62.584 1.62 1.752Z" fill="#2D2A26"/><defs><clipPath id="clip0_943_77177"><path fill="#fff" transform="translate(20 12)" d="M0 0h24v24H0z"/></clipPath></defs></svg>