<svg width="102" height="32" fill="none" xmlns="http://www.w3.org/2000/svg"><g clip-path="url('#clip0_943_91618')" fill="#515051"><path d="M15.984 19.567c-1.299 1.02-2.71 1.53-4.24 1.53-1.572 0-2.68-.318-4.39-1.605-2.765-2.152-2.466-7.936-2.466-7.936S4.744 4.024 8.701 1.382a6.637 6.637 0 0 1 3.112-.765c1.984 0 3.476.515 4.476 1.546 1 1.032 1.631 2.584 1.883 4.662h.818L18.92 0h-.888c-.25.67-.753 1-1.502 1-.936 0-1.722-.165-2.358-.5-.642-.335-1.503-.5-2.6-.5-2.801 0-5.256.92-7.368 2.753C2.097 4.587.91 7.064.632 10.18c-.048.67-.048 1.345 0 2.031.23 2.865 1.32 5.167 3.283 6.9 1.957 1.738 4.262 2.604 6.904 2.604.818 0 1.524-.069 2.117-.207a10.45 10.45 0 0 0 1.556-.473c.444-.175.803-.324 1.075-.441.637-.351 1.16-.532 1.573-.532.663 0 1.058.43 1.197 1.297h.957l.31-7.006h-.924c-.498 2.461-1.401 4.194-2.696 5.215ZM36.684.973h2.252v8.855h-9.503V.973h2.251V.35h-8.347v.622h2.486v19.742h-2.486v.648h8.347v-.648h-2.251v-10.27h9.502v10.27h-2.25v.648h8.352v-.648H42.55V.973h2.487V.35h-8.353v.622ZM63.053 1.355C61.465.452 59.85 0 58.213 0h-.031c-1.637 0-3.252.452-4.84 1.355-1.588.904-2.877 2.19-3.86 3.854C48.491 6.88 48 8.75 48 10.828c0 2.12.492 4.013 1.481 5.677.984 1.67 2.273 2.95 3.861 3.854 1.588.903 3.203 1.355 4.84 1.355h.032c1.636 0 3.25-.451 4.84-1.355 1.587-.904 2.876-2.185 3.86-3.854.99-1.67 1.481-3.561 1.481-5.677 0-2.079-.492-3.955-1.481-5.619-.984-1.669-2.267-2.955-3.86-3.854Zm-.513 17.42c-1.182 1.552-2.626 2.323-4.321 2.323h-.037c-1.696 0-3.14-.776-4.321-2.323-1.182-1.547-1.775-4.2-1.775-7.947 0-3.843.614-6.506 1.85-7.99C55.17 1.356 56.583.618 58.182.618h.037c1.599 0 3.016.738 4.246 2.222 1.235 1.483 1.85 4.146 1.85 7.989 0 3.747-.593 6.395-1.775 7.947ZM82.336 10.036v-.149c1.776-.154 3.284-.659 4.514-1.499 1.235-.845 1.85-1.93 1.85-3.263 0-1.255-.546-2.366-1.626-3.328-1.085-.962-3.07-1.44-5.952-1.44h-9.77v.648h2.487v19.716h-2.486v.648h10.181c2.941 0 5.043-.547 6.305-1.648 1.262-1.1 1.893-2.44 1.893-4.029 0-1.239-.503-2.376-1.508-3.429-1.005-1.057-2.968-1.796-5.888-2.227ZM77.45 1h2.722c1.38 0 2.465.265 3.256.792.792.531 1.182 1.658 1.182 3.386 0 1.355-.342 2.44-1.021 3.253-.68.813-1.947 1.222-3.802 1.222h-2.337V1Zm3.641 19.715H77.45V10.297h2.577a7.95 7.95 0 0 1 2.663.44c.83.293 1.535.857 2.118 1.68.583.825.871 1.983.871 3.472 0 3.22-1.529 4.826-4.588 4.826ZM101.4.973V.35h-8.589v.622h2.487v19.742h-2.487v.648h8.589v-.648h-2.487V.973h2.487ZM33.503 31.9c.027-.054.07-.054.107-.059.257-.043.38-.207.433-.447.086-.398.086-.802.112-1.206a91.41 91.41 0 0 0 .091-1.717c.022-.51-.027-.574-.513-.702-.016-.005-.032-.021-.102-.064h1.236c.107 0 .101.09.128.155.326.909.642 1.817 1 2.71.027.059.032.128.09.176.065-.032.065-.101.086-.154.343-.904.69-1.802.99-2.716.048-.144.112-.187.256-.181.332.01.663.005.995.005.005.064-.032.07-.064.07-.294.01-.417.137-.423.478-.01.574 0 1.148.011 1.716.01.436.032.878.064 1.314.032.42.08.462.487.563.016.005.026.021.059.053h-1.803c0-.074.06-.058.097-.064.267-.042.347-.122.385-.388.059-.436.021-.877.016-1.313-.005-.547-.022-1.09-.032-1.637a.675.675 0 0 0-.038-.223 89.304 89.304 0 0 0-1.406 3.673c-.47-1.244-.925-2.435-1.38-3.63-.016 0-.032.005-.048.005-.01.148-.021.297-.027.446-.042.782-.08 1.563-.085 2.344 0 .059 0 .123.005.181.027.356.064.393.551.606-.433.005-.85.005-1.278.005ZM55.721 27.705h1.631c-.016.07-.074.064-.123.075-.267.063-.363.207-.283.478.107.378.235.744.358 1.116.155.463.321.925.487 1.404.032-.032.048-.043.059-.064.267-.755.54-1.515.738-2.291.112-.43.021-.553-.423-.66-.016-.005-.026-.02-.043-.031.027-.043.065-.032.091-.032.38 0 .754 0 1.15.016-.513.17-.588.632-.733 1.042-.358.988-.7 1.982-1.048 2.977-.021.063-.043.122-.085.239-.321-.93-.631-1.813-.936-2.695-.428.877-.754 1.775-1.118 2.721l-.224-.638c-.327-.909-.647-1.818-.974-2.721-.048-.133-.106-.26-.16-.394-.102-.244-.24-.457-.53-.526h1.69c-.016.07-.074.053-.117.059-.166.037-.236.138-.24.303 0 .111.015.212.047.319.241.786.519 1.562.808 2.333l.037.075c.064-.043.075-.101.096-.155.182-.473.364-.94.551-1.414.038-.1.048-.186.006-.287-.107-.255-.209-.51-.31-.77-.08-.202-.193-.373-.402-.479ZM42.534 29.768c-.005.452-.064.856-.272 1.228-.348.627-.883.957-1.605.946-.716-.01-1.25-.351-1.556-.989-.358-.744-.363-1.515-.026-2.27a1.74 1.74 0 0 1 1.796-1.026c.819.096 1.417.66 1.6 1.5.042.217.053.435.063.61Zm-.834.01c-.01-.494-.048-1.004-.24-1.488-.113-.282-.294-.5-.62-.547-.445-.064-.76.122-.931.568-.22.58-.24 1.186-.22 1.792.017.44.08.871.257 1.28.113.25.289.442.578.484.444.07.76-.117.93-.563.198-.484.24-.994.246-1.526ZM53.497 29.757c-.005.292-.032.58-.118.861-.24.808-.909 1.33-1.711 1.334-.818.006-1.487-.489-1.738-1.297a2.8 2.8 0 0 1-.021-1.637c.246-.866.94-1.382 1.813-1.36.828.02 1.502.61 1.7 1.477.043.207.059.415.075.622Zm-2.84.048c0 .16-.01.324 0 .484.032.404.097.802.29 1.169.143.277.373.42.689.425a.727.727 0 0 0 .706-.425c.059-.112.107-.234.144-.356.182-.611.198-1.233.145-1.866a3.133 3.133 0 0 0-.225-.983c-.112-.266-.289-.473-.599-.521-.438-.07-.754.111-.93.537-.193.5-.241 1.015-.22 1.536ZM63.475 29.794c-.005-.537.086-1.047.375-1.51.518-.829 1.53-.84 2.07-.026.545.824.54 2.286-.011 3.104-.54.798-1.525.787-2.043-.02-.305-.474-.401-1-.39-1.548Zm2.075-.037a6.332 6.332 0 0 0-.08-1.116c-.037-.234-.075-.468-.198-.675-.192-.33-.567-.33-.77-.006-.09.154-.134.325-.166.495a7.73 7.73 0 0 0-.058 2.275c.032.303.069.6.213.877.08.16.209.271.396.271.187 0 .316-.106.401-.266.075-.138.112-.287.145-.441.09-.447.123-.898.117-1.414ZM66.813 29.81c-.006-.558.09-1.068.38-1.53.518-.82 1.518-.83 2.058-.027.556.824.551 2.302-.01 3.12-.54.787-1.508.782-2.033-.021-.31-.478-.4-1.01-.395-1.542Zm2.075-.053c.01-.234-.006-.52-.038-.808-.037-.335-.064-.675-.235-.972-.187-.33-.567-.335-.77-.011-.096.154-.134.324-.166.494a7.916 7.916 0 0 0-.064 2.275c.032.282.07.564.187.824.08.181.203.325.422.33.22.005.343-.133.428-.32.06-.121.091-.254.118-.382.09-.457.123-.914.118-1.43ZM72.567 27.855c-1.145.074-1.728.69-1.701 1.785.166-.09.326-.17.481-.26.39-.234 1.048-.026 1.252.41.24.53.235 1.052-.043 1.552-.251.446-.68.621-1.182.6-.487-.021-.829-.27-1-.728-.369-.989-.374-1.956.23-2.86.444-.675 1.176-.861 1.963-.5Zm-1.728 2.402c.006.43.054.861.177 1.276.059.202.192.34.422.35.198.011.342-.1.439-.329.075-.18.117-.372.139-.569.042-.361.042-.728-.118-1.068-.118-.25-.374-.367-.658-.308-.363.074-.385.1-.4.489v.16ZM45.535 28.933a3.801 3.801 0 0 0-.38-.818c-.197-.303-.465-.436-.828-.377a.604.604 0 0 0-.38.217c-.369.463-.235 1.1.294 1.367.128.063.262.1.396.148.128.048.257.085.38.144.566.26.802.659.727 1.238-.07.548-.46.947-1.027 1.053-.428.08-.85.043-1.262-.085-.278-.085-.369-.207-.374-.5a4.17 4.17 0 0 1 .058-.872c.08.287.123.532.236.75.187.356.438.633.871.68.38.038.674-.138.824-.489.16-.372.08-.792-.193-1.02a1.617 1.617 0 0 0-.556-.282c-.23-.07-.433-.18-.652-.271-.717-.293-.738-1.573.01-1.956.535-.271 1.086-.25 1.637-.07.16.054.22.192.235.352.027.26.01.52-.016.791ZM60.567 28.614c.289-.755.748-1.09 1.561-.903.466.106.749.515.776 1.047.021.398-.097.755-.31 1.09-.332.52-.808.903-1.29 1.275-.08.059-.154.122-.272.207.503 0 .963.011 1.417-.005.262-.005.439-.154.54-.398a.797.797 0 0 1 .102-.17c-.027.345-.048.685-.187 1.01-.048.106-.123.143-.24.138-.69-.006-1.386 0-2.076-.006-.053 0-.128.037-.155-.048-.021-.08.038-.122.091-.164.47-.394.898-.819 1.235-1.335.31-.483.508-.999.428-1.584-.07-.494-.438-.728-.925-.6-.283.074-.492.25-.695.446ZM49.3 29.082a3.063 3.063 0 0 0-.375-.93c-.214-.324-.508-.468-.898-.415-.32.043-.519.245-.653.516-.17.35-.245.728-.272 1.11-.043.623-.022 1.24.176 1.84.113.34.31.595.69.66.417.068.743-.075.99-.41.181-.24.294-.51.4-.792.011.33.054.664-.101.962-.096.191-.321.207-.514.25-.663.143-1.294.095-1.844-.351-.38-.314-.562-.739-.626-1.212a3.277 3.277 0 0 1 .037-1.164 1.884 1.884 0 0 1 2.118-1.473c.193.027.39.048.578.112.219.08.352.223.352.463v.823c-.021.006-.037.006-.058.011Z"/></g><defs><clipPath id="clip0_943_91618"><path fill="#fff" transform="translate(.6)" d="M0 0h100.8v32H0z"/></clipPath></defs></svg>