<svg width="32" height="32" fill="none" xmlns="http://www.w3.org/2000/svg"><path fill-rule="evenodd" clip-rule="evenodd" d="M16 5C9.925 5 5 9.925 5 16c0 3.232 1.394 6.138 3.613 8.15a8.405 8.405 0 0 1 3.61-3.065 6.333 6.333 0 1 1 7.35.146 8.395 8.395 0 0 1 3.483 3.21A10.977 10.977 0 0 0 27 16c0-6.076-4.925-11-11-11Zm0 22c-2.123 0-4.105-.6-5.786-1.642a6.4 6.4 0 0 1 2.134-2.087 6.603 6.603 0 0 1 3.396-.937c1.2 0 2.375.325 3.396.937a6.39 6.39 0 0 1 2.267 2.311A10.95 10.95 0 0 1 16 27ZM3 16C3 8.82 8.82 3 16 3s13 5.82 13 13-5.82 13-13 13S3 23.18 3 16Zm8.667 0a4.333 4.333 0 1 1 8.666 0 4.333 4.333 0 0 1-8.666 0Z" fill="#515051"/></svg>