<svg width="64" height="64" fill="none" xmlns="http://www.w3.org/2000/svg"><path fill-rule="evenodd" clip-rule="evenodd" d="M43.435 16.991c.178-.559 0-.966-.788-.966H40.03c-.66 0-.966.356-1.144.738 0 0-1.347 3.253-3.228 5.363-.61.61-.89.813-1.22.813-.178 0-.406-.203-.406-.762v-5.211c0-.661-.204-.966-.763-.966H29.15c-.406 0-.66.305-.66.61 0 .636.94.788 1.042 2.567v3.864c0 .839-.153.991-.483.991-.89 0-3.05-3.279-4.347-7.015-.254-.737-.508-1.017-1.169-1.017H20.89c-.763 0-.89.356-.89.737 0 .686.89 4.143 4.143 8.718 2.16 3.127 5.236 4.804 8.007 4.804 1.677 0 1.88-.38 1.88-1.016v-2.364c0-.763.153-.89.687-.89.381 0 1.068.203 2.618 1.703 1.78 1.78 2.084 2.593 3.075 2.593h2.619c.762 0 1.118-.381.915-1.119-.23-.737-1.093-1.804-2.212-3.075-.61-.712-1.525-1.5-1.804-1.881-.382-.508-.28-.712 0-1.17-.026 0 3.177-4.524 3.507-6.049Z" fill="#2D2A26" opacity=".4"/><path d="M4.436 51.472v-6.948c0-.352.176-.528.528-.528H8c.688 0 1.232.188 1.632.564.408.376.612.868.612 1.476 0 .472-.136.876-.408 1.212a1.646 1.646 0 0 1-.996.624c.424.056.788.28 1.092.672.312.392.468.824.468 1.296 0 .656-.208 1.18-.624 1.572-.416.392-.98.588-1.692.588h-3.12c-.352 0-.528-.176-.528-.528Zm.996-4.008h2.4c.432 0 .768-.116 1.008-.348.248-.24.372-.552.372-.936s-.124-.696-.372-.936c-.248-.24-.584-.36-1.008-.36h-2.4v2.58Zm0 3.648H7.88c.464 0 .828-.124 1.092-.372.264-.248.396-.584.396-1.008 0-.4-.132-.728-.396-.984-.264-.264-.628-.396-1.092-.396H5.432v2.76Zm12.335.456a.497.497 0 0 1-.132.348.44.44 0 0 1-.324.132.488.488 0 0 1-.36-.144l-3.168-3.468-.804.852v2.268a.457.457 0 0 1-.156.348.474.474 0 0 1-.348.144.474.474 0 0 1-.348-.144.474.474 0 0 1-.144-.348V44.44c0-.136.048-.252.144-.348a.474.474 0 0 1 .348-.144c.136 0 .252.048.348.144a.457.457 0 0 1 .156.348v3.708l3.672-4.044a.412.412 0 0 1 .348-.156c.128 0 .24.044.336.132a.423.423 0 0 1 .144.324.53.53 0 0 1-.132.324l-2.904 3.096 3.192 3.432a.427.427 0 0 1 .132.312Zm1.386-.3c-.528-.584-.792-1.308-.792-2.172 0-.864.264-1.584.792-2.16.536-.584 1.228-.876 2.076-.876.848 0 1.536.292 2.064.876.536.576.804 1.296.804 2.16 0 .864-.268 1.588-.804 2.172-.528.584-1.216.876-2.064.876-.848 0-1.54-.292-2.076-.876Zm3.996-2.172c0-.624-.176-1.152-.528-1.584-.344-.432-.808-.648-1.392-.648-.584 0-1.052.216-1.404.648-.352.432-.528.96-.528 1.584 0 .632.176 1.164.528 1.596.352.432.82.648 1.404.648s1.048-.216 1.392-.648c.352-.432.528-.964.528-1.596Zm2.415 2.508V46.6c0-.12.044-.224.132-.312a.44.44 0 0 1 .324-.132c.12 0 .224.044.312.132a.427.427 0 0 1 .132.312v2.016h3.024V46.6c0-.12.044-.224.132-.312a.427.427 0 0 1 .312-.132.44.44 0 0 1 .324.132.427.427 0 0 1 .132.312v5.004c0 .12-.044.224-.132.312a.44.44 0 0 1-.324.132.427.427 0 0 1-.312-.132.427.427 0 0 1-.132-.312v-2.196h-3.024v2.196c0 .12-.044.224-.132.312a.427.427 0 0 1-.312.132.44.44 0 0 1-.324-.132.427.427 0 0 1-.132-.312Zm7.677 0v-4.608H31.91a.38.38 0 0 1-.276-.12.38.38 0 0 1 0-.552.38.38 0 0 1 .276-.12h3.576c.112 0 .208.04.288.12a.38.38 0 0 1 0 .552.393.393 0 0 1-.288.12h-1.344v4.608c0 .12-.044.224-.132.312a.44.44 0 0 1-.324.132.427.427 0 0 1-.312-.132.427.427 0 0 1-.132-.312Zm8.25-3.588v3.588c0 .12-.045.224-.133.312a.44.44 0 0 1-.324.132.427.427 0 0 1-.312-.132.427.427 0 0 1-.132-.312v-.264c-.448.536-1.088.804-1.92.804-.544 0-1.02-.172-1.428-.516-.4-.352-.6-.82-.6-1.404s.2-1.048.6-1.392a2.148 2.148 0 0 1 1.428-.516c.824 0 1.464.264 1.92.792v-1.044c0-.376-.136-.672-.408-.888-.264-.224-.616-.336-1.056-.336-.576 0-1.08.192-1.512.576a.463.463 0 0 1-.24.072.36.36 0 0 1-.264-.108.36.36 0 0 1-.108-.264c0-.128.052-.228.156-.3.576-.504 1.272-.756 2.088-.756.688 0 1.232.164 1.632.492.408.328.612.816.612 1.464Zm-.9 2.76v-1.092c-.345-.48-.877-.72-1.597-.72-.416 0-.76.12-1.032.36-.264.232-.396.536-.396.912 0 .368.132.672.396.912.272.232.616.348 1.032.348.72 0 1.252-.24 1.596-.72Zm7.503.816a.44.44 0 0 1-.132.324.402.402 0 0 1-.312.132.45.45 0 0 1-.347-.144l-2.124-2.496-.985.912v1.284c0 .12-.044.224-.132.312a.44.44 0 0 1-.323.132.427.427 0 0 1-.313-.132.427.427 0 0 1-.132-.312V46.6c0-.12.045-.224.133-.312a.44.44 0 0 1 .324-.132c.12 0 .224.044.312.132a.427.427 0 0 1 .131.312v2.7l3.133-3.036a.39.39 0 0 1 .288-.108c.111 0 .207.044.288.132.08.08.12.176.12.288 0 .112-.04.208-.12.288l-2.076 1.992 2.16 2.436a.46.46 0 0 1 .107.3Zm2.42.012v-4.608h-1.331a.38.38 0 0 1-.276-.12.38.38 0 0 1 0-.552.38.38 0 0 1 .276-.12h3.576c.112 0 .208.04.288.12a.38.38 0 0 1 0 .552.393.393 0 0 1-.288.12h-1.344v4.608c0 .12-.044.224-.132.312a.44.44 0 0 1-.324.132.427.427 0 0 1-.312-.132.427.427 0 0 1-.132-.312Zm6.082-5.544c.824 0 1.492.284 2.004.852.52.56.78 1.236.78 2.028 0 .304-.176.456-.528.456h-4.164c.032.56.24 1.036.624 1.428.368.384.856.576 1.464.576.576 0 1.096-.184 1.56-.552a.405.405 0 0 1 .204-.048.36.36 0 0 1 .264.108.321.321 0 0 1 .108.252c0 .12-.052.22-.156.3-.584.456-1.272.684-2.064.684-.864 0-1.572-.284-2.124-.852-.552-.568-.828-1.3-.828-2.196 0-.84.272-1.556.816-2.148a2.68 2.68 0 0 1 2.04-.888Zm-1.908 2.676h3.804a2.081 2.081 0 0 0-.528-1.344c-.328-.392-.788-.588-1.38-.588-.56 0-1.012.196-1.356.588a2.137 2.137 0 0 0-.54 1.344Z" fill="#2D2A26"/></svg>