<svg width="64" height="64" fill="none" xmlns="http://www.w3.org/2000/svg"><path fill-rule="evenodd" clip-rule="evenodd" d="M41.377 15.515a3.047 3.047 0 0 1 2.121 2.179C44 19.615 44 23.625 44 23.625s0 4.01-.502 5.931a3.047 3.047 0 0 1-2.121 2.18c-1.872.514-9.377.514-9.377.514s-7.505 0-9.377-.515a3.047 3.047 0 0 1-2.122-2.179C20 27.634 20 23.625 20 23.625s0-4.01.501-5.931a3.047 3.047 0 0 1 2.122-2.179C24.495 15 32 15 32 15s7.505 0 9.377.515ZM29.75 20.25v7.5l6-3.75-6-3.75Z" fill="#2D2A26" opacity=".4"/><path d="m16.936 45.692-2.676 3.924v2.94a.457.457 0 0 1-.156.348.474.474 0 0 1-.348.144.474.474 0 0 1-.348-.144.474.474 0 0 1-.144-.348v-2.94l-2.688-3.912c-.056-.056-.084-.148-.084-.276 0-.136.048-.248.144-.336a.46.46 0 0 1 .336-.144c.184 0 .32.072.408.216l2.376 3.564 2.364-3.564a.502.502 0 0 1 .408-.216c.136 0 .252.048.348.144a.46.46 0 0 1 .06.6Zm.408 6.576c-.528-.584-.792-1.308-.792-2.172 0-.864.264-1.584.792-2.16.536-.584 1.228-.876 2.076-.876.848 0 1.536.292 2.064.876.536.576.804 1.296.804 2.16 0 .864-.268 1.588-.804 2.172-.528.584-1.216.876-2.064.876-.848 0-1.54-.292-2.076-.876Zm3.996-2.172c0-.624-.176-1.152-.528-1.584-.344-.432-.808-.648-1.392-.648-.584 0-1.052.216-1.404.648-.352.432-.528.96-.528 1.584 0 .632.176 1.164.528 1.596.352.432.82.648 1.404.648s1.048-.216 1.392-.648c.352-.432.528-.964.528-1.596Zm7.227-2.496v5.004c0 .12-.044.224-.131.312a.427.427 0 0 1-.313.132.44.44 0 0 1-.324-.132.427.427 0 0 1-.131-.312v-.408c-.576.632-1.264.948-2.064.948-1.232 0-1.848-.616-1.848-1.848V47.6c0-.12.043-.224.131-.312a.44.44 0 0 1 .325-.132c.12 0 .224.044.311.132a.427.427 0 0 1 .133.312v3.42c0 .472.104.812.312 1.02.215.2.544.3.983.3.328 0 .652-.084.973-.252.32-.168.567-.376.744-.624V47.6c0-.12.044-.224.131-.312a.427.427 0 0 1 .313-.132.44.44 0 0 1 .324.132.427.427 0 0 1 .131.312Zm4.306 5.016c0 .168-.076.28-.228.336-.208.128-.48.192-.816.192-.856 0-1.284-.452-1.284-1.356v-3.792h-.612a.38.38 0 0 1-.276-.12.38.38 0 0 1 0-.552.38.38 0 0 1 .276-.12h.612v-1.188c0-.12.044-.224.132-.312a.44.44 0 0 1 .324-.132c.12 0 .224.044.312.132a.427.427 0 0 1 .132.312v1.188h.828c.112 0 .208.04.288.12a.38.38 0 0 1 0 .552.393.393 0 0 1-.288.12h-.828v3.6c0 .224.048.404.144.54a.526.526 0 0 0 .444.204c.072 0 .164-.016.276-.048.112-.04.172-.06.18-.06.112 0 .204.036.276.108a.374.374 0 0 1 .108.276Zm5.831-5.016v5.004c0 .12-.044.224-.132.312a.427.427 0 0 1-.312.132.44.44 0 0 1-.324-.132.427.427 0 0 1-.132-.312v-.408c-.576.632-1.264.948-2.064.948-1.232 0-1.848-.616-1.848-1.848V47.6c0-.12.044-.224.132-.312a.44.44 0 0 1 .324-.132c.12 0 .224.044.312.132a.427.427 0 0 1 .132.312v3.42c0 .472.104.812.312 1.02.216.2.544.3.984.3.328 0 .652-.084.972-.252.32-.168.568-.376.744-.624V47.6c0-.12.044-.224.132-.312a.427.427 0 0 1 .312-.132.44.44 0 0 1 .324.132.427.427 0 0 1 .132.312Zm7.234 2.508c0 .928-.24 1.668-.72 2.22-.472.544-1.092.816-1.86.816-.792 0-1.444-.336-1.956-1.008v.468c0 .12-.044.224-.132.312a.427.427 0 0 1-.312.132.44.44 0 0 1-.324-.132.427.427 0 0 1-.132-.312v-7.212c0-.12.044-.224.132-.312a.44.44 0 0 1 .324-.132c.12 0 .224.044.312.132a.427.427 0 0 1 .132.312v2.7c.488-.688 1.14-1.032 1.956-1.032.76 0 1.38.28 1.86.84.48.56.72 1.296.72 2.208Zm-1.452 1.62c.344-.416.516-.956.516-1.62 0-.664-.172-1.204-.516-1.62-.336-.416-.788-.624-1.356-.624-.336 0-.668.092-.996.276-.328.176-.572.396-.732.66v2.628c.16.264.404.484.732.66.328.168.66.252.996.252.568 0 1.02-.204 1.356-.612Zm5.438-4.668c.824 0 1.492.284 2.004.852.52.56.78 1.236.78 2.028 0 .304-.176.456-.528.456h-4.164c.032.56.24 1.036.624 1.428.368.384.856.576 1.464.576.576 0 1.096-.184 1.56-.552a.405.405 0 0 1 .204-.048.36.36 0 0 1 .264.108.321.321 0 0 1 .108.252c0 .12-.052.22-.156.3-.584.456-1.272.684-2.064.684-.864 0-1.572-.284-2.124-.852-.552-.568-.828-1.3-.828-2.196 0-.84.272-1.556.816-2.148a2.68 2.68 0 0 1 2.04-.888Zm-1.908 2.676h3.804a2.081 2.081 0 0 0-.528-1.344c-.328-.392-.788-.588-1.38-.588-.56 0-1.012.196-1.356.588a2.137 2.137 0 0 0-.54 1.344Z" fill="#2D2A26"/></svg>